<?xml version="1.0" standalone="no"?>
<!DOCTYPE svg PUBLIC "-//W3C//DTD SVG 20010904//EN"
 "http://www.w3.org/TR/2001/REC-SVG-20010904/DTD/svg10.dtd">
<svg version="1.0" xmlns="http://www.w3.org/2000/svg"
 width="32.000000pt" height="32.000000pt" viewBox="0 0 32.000000 32.000000"
 preserveAspectRatio="xMidYMid meet">

<g transform="translate(0.000000,32.000000) scale(0.100000,-0.100000)"
fill="#000000" stroke="none">
<path d="M141 226 c-7 -8 -11 -34 -9 -58 3 -38 6 -43 28 -43 23 0 25 4 28 58
3 51 1 57 -16 57 -11 0 -25 -6 -31 -14z"/>
<path d="M52 208 c-15 -15 -16 -80 0 -96 7 -7 20 -12 30 -12 17 0 19 7 16 57
-3 60 -19 78 -46 51z"/>
<path d="M225 208 c-2 -7 -5 -34 -7 -60 -3 -43 -1 -48 17 -48 12 0 26 5 33 12
15 15 16 63 2 89 -12 21 -38 26 -45 7z"/>
</g>
</svg>
